<svg xmlns="http://www.w3.org/2000/svg" width="37" height="68.436" viewBox="0 0 37 68.436">
  <path id="Path_3767" data-name="Path 3767" d="M57.684.014,48.809,0C38.839,0,32.4,6.611,32.4,16.842v7.765H23.472a1.4,1.4,0,0,0-1.4,1.4V37.255a1.4,1.4,0,0,0,1.4,1.4H32.4v28.39a1.4,1.4,0,0,0,1.4,1.4H45.433a1.4,1.4,0,0,0,1.4-1.4V38.65H57.262a1.4,1.4,0,0,0,1.4-1.4l0-11.251a1.4,1.4,0,0,0-1.4-1.4H46.828V18.025c0-3.164.754-4.77,4.876-4.77l5.978,0a1.4,1.4,0,0,0,1.395-1.4V1.41A1.4,1.4,0,0,0,57.684.014Z" transform="translate(-22.077)" fill="#fff"/>
</svg>
