<svg id="search" xmlns="http://www.w3.org/2000/svg" width="73.063" height="73.063" viewBox="0 0 73.063 73.063">
  <path id="Path_2023" data-name="Path 2023" d="M16.192,162.69l-2.543,9.494-9.3.2a36.6,36.6,0,0,1-.269-34.113h0l8.276,1.517,3.625,8.226a21.8,21.8,0,0,0,.2,14.679Z" transform="translate(0 -118.537)" fill="#fbbb00"/>
  <path id="Path_2024" data-name="Path 2024" d="M296.718,208.176A36.518,36.518,0,0,1,283.7,243.489l0,0-10.424-.532-1.475-9.209a21.773,21.773,0,0,0,9.368-11.118H261.628V208.176h35.09Z" transform="translate(-224.293 -178.469)" fill="#518ef8"/>
  <path id="Path_2025" data-name="Path 2025" d="M85.555,330.274l0,0A36.544,36.544,0,0,1,30.509,319.1l11.839-9.691a21.727,21.727,0,0,0,31.309,11.124Z" transform="translate(-26.155 -265.256)" fill="#28b446"/>
  <path id="Path_2026" data-name="Path 2026" d="M84.389,8.41,72.554,18.1A21.724,21.724,0,0,0,40.527,29.474l-11.9-9.743h0A36.539,36.539,0,0,1,84.389,8.41Z" transform="translate(-24.539)" fill="#f14336"/>
</svg>
